<svg xmlns="http://www.w3.org/2000/svg" viewBox="0 0 512 512" width="512" height="512">
  <defs>
    <linearGradient id="bg" x1="0%" y1="0%" x2="100%" y2="100%">
      <stop offset="0%" style="stop-color:#6C5CE7"/>
      <stop offset="100%" style="stop-color:#4834D4"/>
    </linearGradient>
    <linearGradient id="shine" x1="0%" y1="0%" x2="100%" y2="100%">
      <stop offset="0%" style="stop-color:rgba(255,255,255,0.15)"/>
      <stop offset="100%" style="stop-color:rgba(255,255,255,0)"/>
    </linearGradient>
  </defs>

  <!-- Rounded square background -->
  <rect x="16" y="16" width="480" height="480" rx="96" ry="96" fill="url(#bg)"/>

  <!-- Subtle shine overlay -->
  <rect x="16" y="16" width="480" height="480" rx="96" ry="96" fill="url(#shine)"/>

  <!-- Markdown symbol: M with down arrow -->
  <g fill="#FFFFFF">
    <!-- Left bar of M -->
    <rect x="108" y="136" width="48" height="240" rx="8"/>

    <!-- Left diagonal of M -->
    <polygon points="132,136 256,260 256,200 156,100" opacity="0"/>

    <!-- The M shape as a path -->
    <path d="M108,376 L108,136 C108,128 114,122 122,122 L140,122 C146,122 151,125 154,130 L256,264 L358,130 C361,125 366,122 372,122 L390,122 C398,122 404,128 404,136 L404,376 C404,384 398,390 390,390 L372,390 C364,390 358,384 358,376 L358,240 L274,348 C268,356 256,356 250,348 L154,228 L154,376 C154,384 148,390 140,390 L122,390 C114,390 108,384 108,376 Z"/>

    <!-- Down arrow -->
    <path d="M232,368 L232,340 C232,334 237,330 242,330 L270,330 C276,330 280,334 280,340 L280,368 L306,368 C314,368 318,378 312,384 L262,434 C258,438 254,438 250,434 L200,384 C194,378 198,368 206,368 Z" opacity="0.85"/>
  </g>
</svg>
